<?xml version="1.0" encoding="utf-8"?>
<!-- Generator: Adobe Illustrator 20.1.0, SVG Export Plug-In . SVG Version: 6.00 Build 0)  -->
<svg version="1.1" id="Layer_1" xmlns="http://www.w3.org/2000/svg" xmlns:xlink="http://www.w3.org/1999/xlink" x="0px" y="0px"
	 viewBox="0 0 165 151.9" style="enable-background:new 0 0 165 151.9;" xml:space="preserve">
<style type="text/css">
	.st0{fill:#8995C1;}
	.st1{clip-path:url(#SVGID_2_);fill:#8A96C0;}
	.st2{fill:#49599F;}
	.st3{fill:#9499CB;}
</style>
<rect x="580.4" y="384.5" class="st0" width="68.9" height="60.6"/>
<g>
	<g>
		<g>
			<defs>
				<rect id="SVGID_1_" x="551.3" y="325.1" width="127" height="151.9"/>
			</defs>
			<clipPath id="SVGID_2_">
				<use xlink:href="#SVGID_1_"  style="overflow:visible;"/>
			</clipPath>
			<path class="st1" d="M671.4,340.6h-39.5v-12c0-1.9-1.6-3.5-3.5-3.5h-27.1c-1.9,0-3.5,1.6-3.5,3.5v12h-39.5c-3.8,0-7,3.1-7,7
				v122.2c0,3.8,3.1,7,7,7h113.1c3.8,0,7-3.1,7-7V347.5C678.4,343.7,675.3,340.6,671.4,340.6L671.4,340.6z M589.9,351h7.9v6.4
				c0,1.9,1.6,3.5,3.5,3.5h27.1c1.9,0,3.5-1.6,3.5-3.5V351h7.9v17.9h-49.8L589.9,351L589.9,351z M634.5,430l0,3.9l0,8l-39.3,0
				l0-12.1c0-4.4,5.2-7.5,6.9-9.8c-2.9-3.7-8.7-8.3-8.7-13.5V400c0-11.9,9.7-21.6,21.6-21.6c11.9,0,21.6,9.7,21.6,21.6v6.6
				c0,5.5-6,10.3-9.2,14C629.1,423.3,634.5,426.6,634.5,430L634.5,430z M643.8,463.1h-57.9v-11.7h57.9V463.1L643.8,463.1z"/>
		</g>
	</g>
</g>
<g>
	<path class="st2" d="M590.2,442.6c0-13.6,11-24.6,24.6-24.6s24.6,11,24.6,24.6H590.2z"/>
	<circle class="st2" cx="614.6" cy="399.7" r="22.8"/>
</g>
<path class="st3" d="M29.7,124.5V16.6h87.1v90.6l16.6-13.7V8.3c0-4.6-3.7-8.3-8.3-8.3H21.4c-4.6,0-8.3,3.7-8.3,8.3v124.4
	c0,4.6,3.7,8.3,8.3,8.3h72.4L82,124.5H29.7z M29.7,124.5"/>
<path class="st3" d="M157.3,89.2c-1.5-1.4-3.9-1.5-5.5-0.2l-38,31.4l-25.4-15.2c-1.7-1-3.8-0.7-5.2,0.7c-1.3,1.4-1.5,3.6-0.3,5.2
	l27.5,38.9c0.8,1.1,2,1.8,3.4,1.8h0c1.3,0,2.6-0.6,3.3-1.7l40.7-55.5C159,93,158.8,90.6,157.3,89.2L157.3,89.2z M157.3,89.2"/>
<path class="st3" d="M98.1,29H48.3c-4.6,0-8.3,3.7-8.3,8.3c0,4.6,3.7,8.3,8.3,8.3h49.8c4.6,0,8.3-3.7,8.3-8.3
	C106.4,32.8,102.7,29,98.1,29L98.1,29z M98.1,29"/>
<path class="st3" d="M98.1,53.9H48.3c-4.6,0-8.3,3.7-8.3,8.3c0,4.6,3.7,8.3,8.3,8.3h49.8c4.6,0,8.3-3.7,8.3-8.3
	C106.4,57.6,102.7,53.9,98.1,53.9L98.1,53.9z M98.1,53.9"/>
<path class="st3" d="M98.1,78.8H48.3c-4.6,0-8.3,3.7-8.3,8.3c0,4.6,3.7,8.3,8.3,8.3h49.8c4.6,0,8.3-3.7,8.3-8.3
	C106.4,82.5,102.7,78.8,98.1,78.8L98.1,78.8z M98.1,78.8"/>
</svg>
