<?xml version="1.0" encoding="utf-8"?>
<!-- Generator: Adobe Illustrator 20.1.0, SVG Export Plug-In . SVG Version: 6.00 Build 0)  -->
<svg version="1.1" id="Layer_1" xmlns="http://www.w3.org/2000/svg" xmlns:xlink="http://www.w3.org/1999/xlink" x="0px" y="0px"
	 viewBox="0 0 165 151.9" style="enable-background:new 0 0 165 151.9;" xml:space="preserve">
<style type="text/css">
	.st0{fill:#8995C1;}
	.st1{clip-path:url(#SVGID_2_);fill:#8A96C0;}
	.st2{fill:#49599F;}
	.st3{fill:#9499CB;}
</style>
<rect x="580.4" y="384.5" class="st0" width="68.9" height="60.6"/>
<g>
	<g>
		<g>
			<defs>
				<rect id="SVGID_1_" x="551.3" y="325.1" width="127" height="151.9"/>
			</defs>
			<clipPath id="SVGID_2_">
				<use xlink:href="#SVGID_1_"  style="overflow:visible;"/>
			</clipPath>
			<path class="st1" d="M671.4,340.6h-39.5v-12c0-1.9-1.6-3.5-3.5-3.5h-27.1c-1.9,0-3.5,1.6-3.5,3.5v12h-39.5c-3.8,0-7,3.1-7,7
				v122.2c0,3.8,3.1,7,7,7h113.1c3.8,0,7-3.1,7-7V347.5C678.4,343.7,675.3,340.6,671.4,340.6L671.4,340.6z M589.9,351h7.9v6.4
				c0,1.9,1.6,3.5,3.5,3.5h27.1c1.9,0,3.5-1.6,3.5-3.5V351h7.9v17.9h-49.8L589.9,351L589.9,351z M634.5,430l0,3.9l0,8l-39.3,0
				l0-12.1c0-4.4,5.2-7.5,6.9-9.8c-2.9-3.7-8.7-8.3-8.7-13.5V400c0-11.9,9.7-21.6,21.6-21.6c11.9,0,21.6,9.7,21.6,21.6v6.6
				c0,5.5-6,10.3-9.2,14C629.1,423.3,634.5,426.6,634.5,430L634.5,430z M643.8,463.1h-57.9v-11.7h57.9V463.1L643.8,463.1z"/>
		</g>
	</g>
</g>
<g>
	<path class="st2" d="M590.2,442.6c0-13.6,11-24.6,24.6-24.6s24.6,11,24.6,24.6H590.2z"/>
	<circle class="st2" cx="614.6" cy="399.7" r="22.8"/>
</g>
<g>
	<path class="st3" d="M129,58.4c-1.6,0-3,0.6-4.1,1.7c-1.2,1.2-1.7,2.5-1.7,4.1v11.7c0,11.3-4,20.9-12,28.9c-8,8-17.6,12-28.9,12
		c-11.3,0-20.9-4-28.9-12c-8-8-12-17.6-12-28.9V64.2c0-1.6-0.6-2.9-1.7-4.1c-1.2-1.2-2.5-1.7-4.1-1.7c-1.6,0-3,0.6-4.1,1.7
		c-1.2,1.2-1.7,2.5-1.7,4.1v11.7c0,13.5,4.5,25.2,13.5,35.1c9,10,20.1,15.7,33.3,17.1v12.1H53.1c-1.6,0-3,0.6-4.1,1.7
		c-1.2,1.2-1.7,2.5-1.7,4.1c0,1.6,0.6,2.9,1.7,4.1c1.2,1.2,2.5,1.7,4.1,1.7h58.4c1.6,0,3-0.6,4.1-1.7c1.2-1.2,1.7-2.5,1.7-4.1
		c0-1.6-0.6-3-1.7-4.1c-1.2-1.2-2.5-1.7-4.1-1.7H88.1v-12.1c13.2-1.5,24.3-7.2,33.3-17.1c9-10,13.5-21.6,13.5-35.1V64.2
		c0-1.6-0.6-2.9-1.7-4.1C132,59,130.6,58.4,129,58.4L129,58.4z"/>
	<path class="st3" d="M68.5,56.9H53.1v10.7h15.4c2.4,0,4.3,1.9,4.3,4.3c0,2.4-1.9,4.3-4.3,4.3H53.1c0,7.9,2.9,14.8,8.6,20.5
		c5.7,5.7,12.6,8.6,20.6,8.6c8,0,14.9-2.9,20.6-8.6c5.7-5.7,8.5-12.5,8.6-20.5H96.6c-2.4,0-4.3-1.9-4.3-4.3c0-2.4,1.9-4.3,4.3-4.3
		h14.9V56.9H96.6c-2.4,0-4.3-1.9-4.3-4.3c0-2.4,1.9-4.3,4.3-4.3h14.9V36.9H96.6c-2.4,0-4.3-1.9-4.3-4.3c0-2.4,1.9-4.3,4.3-4.3h14.9
		c-0.2-7.7-3-14.3-8.6-19.8C97.2,2.8,90.3,0,82.3,0c-8,0-14.9,2.9-20.6,8.6c-5.5,5.5-8.4,12.1-8.6,19.8h15.4c2.4,0,4.3,1.9,4.3,4.3
		c0,2.4-1.9,4.3-4.3,4.3H53.1v11.4h15.4c2.4,0,4.3,1.9,4.3,4.3C72.8,54.9,70.9,56.9,68.5,56.9L68.5,56.9z"/>
</g>
</svg>
