<?xml version="1.0" encoding="utf-8"?>
<!-- Generator: Adobe Illustrator 20.1.0, SVG Export Plug-In . SVG Version: 6.00 Build 0)  -->
<svg version="1.1" id="Layer_1" xmlns="http://www.w3.org/2000/svg" xmlns:xlink="http://www.w3.org/1999/xlink" x="0px" y="0px"
	 viewBox="0 0 849.3 849.3" style="enable-background:new 0 0 849.3 849.3;" xml:space="preserve">
<style type="text/css">
	.st0{fill:#4B59A7;}
	.st1{fill:#FFFFFF;}
</style>
<circle class="st0" cx="424.7" cy="424.6" r="424.7"/>
<g>
	<g>
		<path class="st1" d="M694.6,597.3c0,29-17.3,52.5-38.6,52.5H193.3c-21.3,0-38.6-23.5-38.6-52.5V252c0-29,17.3-52.5,38.6-52.5
			h462.8c21.3,0,38.6,23.5,38.6,52.5L694.6,597.3L694.6,597.3z"/>
		<rect x="202.2" y="327.8" class="st0" width="444.9" height="272.6"/>
		<path class="st1" d="M386,492.2c-17.8-11.7-29.5-31.8-29.5-54.7c0-36.1,29.3-65.4,65.4-65.4c36.1,0,65.4,29.3,65.4,65.4
			c0,22.9-11.8,43-29.6,54.7c28.2,13.4,47.6,42.1,47.6,75.3H338.5C338.5,534.3,357.9,505.6,386,492.2L386,492.2z"/>
		<path class="st1" d="M265.2,510.2c-13.5-8.9-22.5-24.2-22.5-41.6c0-27.5,22.3-49.8,49.8-49.8c27.5,0,49.8,22.3,49.8,49.8
			c0,17.4-9,32.7-22.5,41.6c21.4,10.2,36.2,32,36.2,57.3H229C229,542.3,243.8,520.4,265.2,510.2L265.2,510.2z"/>
		<path class="st1" d="M528.7,510.2c-13.5-8.9-22.5-24.2-22.5-41.6c0-27.5,22.3-49.8,49.7-49.8c27.5,0,49.8,22.3,49.8,49.8
			c0,17.4-9,32.7-22.5,41.6c21.4,10.2,36.2,32,36.2,57.3h-127C492.5,542.3,507.3,520.4,528.7,510.2L528.7,510.2z"/>
		<circle class="st0" cx="562.7" cy="263.4" r="18.3"/>
		<circle class="st0" cx="628.8" cy="263.4" r="18.3"/>
	</g>
	<rect x="229" y="567.1" class="st1" width="390.2" height="1.6"/>
</g>
</svg>
