<svg xmlns="http://www.w3.org/2000/svg" viewBox="0 0 117.44 117.44"><defs><style>.cls-1{fill:#4b58a7;}.cls-2{fill:#fff;}</style></defs><title>dccon_icon</title><g id="레이어_2" data-name="레이어 2"><g id="Layer_1" data-name="Layer 1"><circle class="cls-1" cx="58.72" cy="58.72" r="58.72"/><path class="cls-2" d="M81.16,35.4a24.89,24.89,0,0,0-18.59,8.36A28.53,28.53,0,0,1,59.38,72.5a24.19,24.19,0,0,0,4.62,6l-.82,13.92L75,84.55A25,25,0,1,0,81.16,35.4ZM66.37,56.55A4.48,4.48,0,1,1,70.86,61a4.5,4.5,0,0,1-4.49-4.48Zm14.79,20.7c-6.89,0-12.47-5.48-12.47-8.64s5.58.14,12.47.14,12.48-3.28,12.48-.14-5.59,8.64-12.48,8.64ZM91.47,61A4.49,4.49,0,1,1,96,56.55,4.47,4.47,0,0,1,91.47,61Z"/><path class="cls-2" d="M42.52,79.58,54.36,87.4l-.83-13.89a24.93,24.93,0,1,0-17.15,6.86,25.82,25.82,0,0,0,6.14-.79Zm4.16-32.49a4.48,4.48,0,1,1-4.48,4.48,4.47,4.47,0,0,1,4.48-4.48ZM21.6,51.57A4.47,4.47,0,1,1,26.07,56a4.47,4.47,0,0,1-4.47-4.47Zm2.29,12.07c0-3.16,5.6.12,12.49.12s12.47-3.28,12.47-.12-5.58,8.62-12.47,8.62-12.49-5.48-12.49-8.62Z"/></g></g></svg>