<?xml version="1.0" encoding="utf-8"?>
<!-- Generator: Adobe Illustrator 20.1.0, SVG Export Plug-In . SVG Version: 6.00 Build 0)  -->
<svg version="1.1" id="Layer_1" xmlns="http://www.w3.org/2000/svg" xmlns:xlink="http://www.w3.org/1999/xlink" x="0px" y="0px"
	 viewBox="0 0 165 151.9" style="enable-background:new 0 0 165 151.9;" xml:space="preserve">
<style type="text/css">
	.st0{fill:#8995C1;}
	.st1{clip-path:url(#SVGID_2_);fill:#8A96C0;}
	.st2{fill:#49599F;}
	.st3{fill:#9499CB;}
	.st4{clip-path:url(#SVGID_4_);fill:#9499CB;}
</style>
<rect x="580.4" y="384.5" class="st0" width="68.9" height="60.6"/>
<g>
	<g>
		<g>
			<defs>
				<rect id="SVGID_1_" x="551.3" y="325.1" width="127" height="151.9"/>
			</defs>
			<clipPath id="SVGID_2_">
				<use xlink:href="#SVGID_1_"  style="overflow:visible;"/>
			</clipPath>
			<path class="st1" d="M671.4,340.6h-39.5v-12c0-1.9-1.6-3.5-3.5-3.5h-27.1c-1.9,0-3.5,1.6-3.5,3.5v12h-39.5c-3.8,0-7,3.1-7,7
				v122.2c0,3.8,3.1,7,7,7h113.1c3.8,0,7-3.1,7-7V347.5C678.4,343.7,675.3,340.6,671.4,340.6L671.4,340.6z M589.9,351h7.9v6.4
				c0,1.9,1.6,3.5,3.5,3.5h27.1c1.9,0,3.5-1.6,3.5-3.5V351h7.9v17.9h-49.8L589.9,351L589.9,351z M634.5,430l0,3.9l0,8l-39.3,0
				l0-12.1c0-4.4,5.2-7.5,6.9-9.8c-2.9-3.7-8.7-8.3-8.7-13.5V400c0-11.9,9.7-21.6,21.6-21.6c11.9,0,21.6,9.7,21.6,21.6v6.6
				c0,5.5-6,10.3-9.2,14C629.1,423.3,634.5,426.6,634.5,430L634.5,430z M643.8,463.1h-57.9v-11.7h57.9V463.1L643.8,463.1z"/>
		</g>
	</g>
</g>
<g>
	<path class="st2" d="M590.2,442.6c0-13.6,11-24.6,24.6-24.6s24.6,11,24.6,24.6H590.2z"/>
	<circle class="st2" cx="614.6" cy="399.7" r="22.8"/>
</g>
<g>
	<path class="st3" d="M131.2,24.9H34.4c-4.6,0-8.3,3.7-8.3,8.3c0,4.6,3.7,8.3,8.3,8.3h96.8c4.6,0,8.3-3.7,8.3-8.3
		C139.4,28.6,135.7,24.9,131.2,24.9L131.2,24.9z M131.2,24.9"/>
	<path class="st3" d="M131.2,49.8H34.4c-4.6,0-8.3,3.7-8.3,8.3c0,4.6,3.7,8.3,8.3,8.3h96.8c4.6,0,8.3-3.7,8.3-8.3
		C139.4,53.5,135.7,49.8,131.2,49.8L131.2,49.8z M131.2,49.8"/>
	<path class="st3" d="M131.2,74.7H34.4c-4.6,0-8.3,3.7-8.3,8.3c0,4.6,3.7,8.3,8.3,8.3h96.8c4.6,0,8.3-3.7,8.3-8.3
		C139.4,78.4,135.7,74.7,131.2,74.7L131.2,74.7z M131.2,74.7"/>
	<g>
		<defs>
			<rect id="SVGID_3_" x="0" y="0.1" width="165" height="151.6"/>
		</defs>
		<clipPath id="SVGID_4_">
			<use xlink:href="#SVGID_3_"  style="overflow:visible;"/>
		</clipPath>
		<path class="st4" d="M151.3,0.1H13.8C6.2,0.1,0,6.3,0,13.9V117c0,7.6,6.2,13.8,13.8,13.8h46.8L56,144.5H34.4
			c-1.9,0-3.4,1.5-3.4,3.4c0,1.9,1.5,3.4,3.4,3.4h96.3c1.9,0,3.4-1.5,3.4-3.4c0-1.9-1.5-3.4-3.4-3.4h-21.6l-4.6-13.8h46.8
			c7.6,0,13.8-6.2,13.8-13.8V13.9C165,6.3,158.9,0.1,151.3,0.1L151.3,0.1z M82.5,120.5c-3.8,0-6.9-3.1-6.9-6.9
			c0-3.8,3.1-6.9,6.9-6.9c3.8,0,6.9,3.1,6.9,6.9C89.4,117.4,86.3,120.5,82.5,120.5L82.5,120.5z M151.3,103.3H13.8V13.9h137.5V103.3z
			 M151.3,103.3"/>
	</g>
</g>
</svg>
