<?xml version="1.0" encoding="utf-8"?>
<!-- Generator: Adobe Illustrator 20.1.0, SVG Export Plug-In . SVG Version: 6.00 Build 0)  -->
<svg version="1.1" id="Layer_1" xmlns="http://www.w3.org/2000/svg" xmlns:xlink="http://www.w3.org/1999/xlink" x="0px" y="0px"
	 viewBox="0 0 849.3 849.3" style="enable-background:new 0 0 849.3 849.3;" xml:space="preserve">
<style type="text/css">
	.st0{fill:#4B59A7;}
	.st1{fill:#FFFFFF;}
</style>
<path class="st0" d="M849.3,424.6c0,234.5-190.1,424.7-424.6,424.7S0,659.2,0,424.6S190.1,0,424.7,0S849.3,190.1,849.3,424.6z"/>
<g>
	<path class="st1" d="M694.6,597.3c0,29-17.3,52.5-38.6,52.5H193.3c-21.3,0-38.6-23.5-38.6-52.5V252c0-29,17.3-52.5,38.6-52.5h462.8
		c21.3,0,38.6,23.5,38.6,52.5L694.6,597.3L694.6,597.3z"/>
	<rect x="202.2" y="327.8" class="st0" width="444.9" height="272.6"/>
	<circle class="st0" cx="562.7" cy="263.4" r="18.3"/>
	<circle class="st0" cx="628.8" cy="263.4" r="18.3"/>
	<g>
		<path class="st0" d="M242.2,307l86.3-127.7h114.7c-8.3,7.4-15.1,18.5-20.4,33.1l-52.5,157.5c-4.4,14.6-5,25.7-1.7,33.1H265
			c8.3-7.4,15.1-18.5,20.4-33.1l45.7-137.2L216.3,403H156l-0.3-170.3L110,369.9c-4.4,14.6-5,25.7-1.7,33.1H52.7
			c8.4-7.8,15.2-18.8,20.4-33.1l52.5-157.5c4.3-14.3,4.9-25.3,1.7-33.1H242L242.2,307z"/>
	</g>
	<path class="st1" d="M386,492.2c-17.8-11.7-29.5-31.8-29.5-54.7c0-36.1,29.3-65.4,65.4-65.4c36.1,0,65.4,29.3,65.4,65.4
		c0,22.9-11.8,43-29.6,54.7c28.2,13.4,47.6,42.1,47.6,75.3H338.5C338.5,534.3,357.9,505.6,386,492.2L386,492.2z"/>
	<path class="st1" d="M265.2,510.2c-13.5-8.9-22.5-24.2-22.5-41.6c0-27.5,22.3-49.8,49.8-49.8c27.5,0,49.8,22.3,49.8,49.8
		c0,17.4-9,32.7-22.5,41.6c21.4,10.2,36.2,32,36.2,57.3H229C229,542.3,243.8,520.4,265.2,510.2L265.2,510.2z"/>
	<rect x="127.6" y="349.1" class="st0" width="109.7" height="53.9"/>
	<path class="st1" d="M528.7,510.2c-13.5-8.9-22.5-24.2-22.5-41.6c0-27.5,22.3-49.8,49.7-49.8c27.5,0,49.8,22.3,49.8,49.8
		c0,17.4-9,32.7-22.5,41.6c21.4,10.2,36.2,32,36.2,57.3h-127C492.5,542.3,507.3,520.4,528.7,510.2L528.7,510.2z"/>
	<rect x="170.8" y="157.9" class="st0" width="178.7" height="223.4"/>
	<g>
		<path class="st1" d="M229.3,284.9L305,173h100.6c-7.2,6.5-13.2,16.2-17.9,29l-46,138c-3.9,12.8-4.4,22.5-1.5,29h-90.9
			c7.2-6.5,13.2-16.2,17.9-29l40.1-120.2L206.6,369.1h-52.9l-0.3-149.2l-40.1,120.2c-3.9,12.8-4.4,22.5-1.5,29H63.2
			c7.3-6.8,13.3-16.5,17.9-29l46-138c3.8-12.5,4.3-22.2,1.5-29h100.6L229.3,284.9z"/>
	</g>
	<rect x="228.9" y="567" class="st1" width="390.2" height="1.6"/>
</g>
</svg>
