<?xml version="1.0" encoding="utf-8"?>
<!-- Generator: Adobe Illustrator 20.1.0, SVG Export Plug-In . SVG Version: 6.00 Build 0)  -->
<svg version="1.1" id="Layer_1" xmlns="http://www.w3.org/2000/svg" xmlns:xlink="http://www.w3.org/1999/xlink" x="0px" y="0px"
	 viewBox="0 0 849.3 849.3" style="enable-background:new 0 0 849.3 849.3;" xml:space="preserve">
<style type="text/css">
	.st0{fill:#4B59A7;}
	.st1{fill:#FFFFFF;}
</style>
<circle class="st0" cx="424.7" cy="424.7" r="424.7"/>
<g>
	<path class="st1" d="M559.9,633H289.4V529.6c-8.9-1.3-17.6-3.6-26-6.6v141.9c0,20.6,16.9,37.5,37.5,37.5h247.5
		c20.6,0,37.5-16.9,37.5-37.5V548.2c-8.4,2.9-17.1,5.2-26.1,6.6V633z M424.6,683.6c-10.3,0-18.7-8.4-18.7-18.8
		c0-10.4,8.4-18.7,18.7-18.7c10.4,0,18.8,8.3,18.8,18.7C443.4,675.2,435,683.6,424.6,683.6L424.6,683.6z"/>
	<path class="st1" d="M289.4,206.5h270.4v58.8c9,1.3,17.8,3.5,26.1,6.5v-87.3c0-20.6-16.9-37.5-37.5-37.5H300.9
		c-20.7,0-37.5,16.8-37.5,37.5v62.2c8.3-2.9,17.1-5.1,26-6.5V206.5z M385,173.9h79.3c2.5,0,4.5,2,4.5,4.6c0,2.5-2,4.5-4.5,4.5H385
		c-2.5,0-4.5-2-4.5-4.5C380.5,176,382.6,173.9,385,173.9L385,173.9z"/>
	<path class="st1" d="M537.7,283.9c-37.4,0-70.8,16.4-93.8,42.1c8,18,12.6,37.8,12.6,58.7c0,31.7-10.1,61.5-28.7,86.3
		c6.2,11.2,14.1,21.3,23.4,30.1l-4.2,70.2l59.8-39.6c9.9,2.5,20.3,4,31,4c69.6,0,126-56.4,126-126
		C663.7,340.3,607.3,283.9,537.7,283.9L537.7,283.9z M463.1,390.6c0-12.5,10.2-22.7,22.7-22.7c12.5,0,22.6,10.2,22.6,22.7
		c0,12.5-10.1,22.6-22.6,22.6C473.3,413.1,463.1,403,463.1,390.6L463.1,390.6z M537.7,495c-34.8,0-63-27.6-63-43.6
		c0-15.9,28.2,0.7,63,0.7c34.8,0,63-16.6,63-0.7C600.7,467.3,572.5,495,537.7,495L537.7,495z M589.8,413.1
		c-12.5,0-22.6-10.1-22.6-22.6c0-12.5,10.1-22.7,22.6-22.7c12.5,0,22.6,10.2,22.6,22.7C612.4,403,602.3,413.1,589.8,413.1
		L589.8,413.1z"/>
	<path class="st1" d="M342.6,506.7l59.8,39.5l-4.2-70.1c24.2-23,39.4-55.4,39.4-91.4c0-69.5-56.4-125.9-126-125.9
		c-69.6,0-126,56.4-126,125.9c0,69.6,56.4,126,126,126C322.3,510.7,332.7,509.2,342.6,506.7L342.6,506.7z M363.6,342.8
		c12.5,0,22.6,10.1,22.6,22.6c0,12.5-10.1,22.6-22.6,22.6c-12.5,0-22.6-10.1-22.6-22.6C341,352.9,351.1,342.8,363.6,342.8
		L363.6,342.8z M237,365.4c0-12.5,10.1-22.6,22.6-22.6c12.5,0,22.6,10.1,22.6,22.6c0,12.5-10.1,22.6-22.6,22.6
		C247.1,388,237,377.9,237,365.4L237,365.4z M248.6,426.3c0-15.9,28.2,0.6,63.1,0.6c34.8,0,63-16.6,63-0.6c0,15.8-28.2,43.5-63,43.5
		C276.8,469.8,248.6,442.2,248.6,426.3L248.6,426.3z"/>
</g>
</svg>
