<?xml version="1.0" encoding="utf-8"?>
<!-- Generator: Adobe Illustrator 20.1.0, SVG Export Plug-In . SVG Version: 6.00 Build 0)  -->
<svg version="1.1" id="Layer_1" xmlns="http://www.w3.org/2000/svg" xmlns:xlink="http://www.w3.org/1999/xlink" x="0px" y="0px"
	 viewBox="0 0 849.3 849.3" style="enable-background:new 0 0 849.3 849.3;" xml:space="preserve">
<style type="text/css">
	.st0{fill:#4B59A7;}
	.st1{fill:#FFFFFF;}
	.st2{fill:none;stroke:#4B59A7;stroke-width:6;stroke-miterlimit:10;}
</style>
<path class="st0" d="M849.3,424.7c0,234.5-190.1,424.7-424.7,424.7S0,659.2,0,424.7C0,190.1,190.1,0,424.7,0
	S849.3,190.1,849.3,424.7z"/>
<g>
	<path class="st1" d="M696,481.4c-4.3-120.9-96.4-161.8-137.8-193.3c-51.9-39.4-42.9-89.3-76.4-83.3c-14,2.5-15.6,20.6-26.9,20.6
		c-11.4,0-8.4-30.4-30.2-30.4c-21.8,0-18.8,30.4-30.2,30.4c-11.3,0-13-18.1-26.9-20.6c-33.5-5.9-24.5,44-76.4,83.3
		c-41.4,31.4-133.5,72.4-137.8,193.3c-3.2,90.3,92.4,169.9,271.3,172.9C603.7,651.3,699.3,571.7,696,481.4z"/>
	<g>
		<line class="st2" x1="424.7" y1="263.4" x2="424.7" y2="321.7"/>
		<line class="st2" x1="366.7" y1="263.4" x2="345.4" y2="317.7"/>
		<line class="st2" x1="482.7" y1="263.4" x2="503.9" y2="317.7"/>
	</g>
</g>
</svg>
