<?xml version="1.0" encoding="utf-8"?>
<!-- Generator: Adobe Illustrator 20.1.0, SVG Export Plug-In . SVG Version: 6.00 Build 0)  -->
<svg version="1.1" id="Layer_1" xmlns="http://www.w3.org/2000/svg" xmlns:xlink="http://www.w3.org/1999/xlink" x="0px" y="0px"
	 viewBox="0 0 849.3 849.3" style="enable-background:new 0 0 849.3 849.3;" xml:space="preserve">
<style type="text/css">
	.st0{fill:#4B59A7;}
	.st1{fill:#FFFFFF;}
</style>
<path class="st0" d="M849.3,424.7c0,234.5-190.1,424.7-424.7,424.7C190.1,849.3,0,659.2,0,424.7C0,190.1,190.1,0,424.7,0
	C659.2,0,849.3,190.1,849.3,424.7z"/>
<g>
	<path class="st1" d="M539,228.4h138c-8,9-14.1,17.8-18.4,26.5c-4.3,8.7-10.1,24-17.5,46L569.1,517c-7.4,22.3-14.3,39-20.7,50.1
		c-6.4,11.1-14.8,21.3-25.4,30.6c-14.6,13-29.1,21.4-43.3,25.2c-14.3,3.8-39,5.9-74.3,6.3H173.1l13.1-70.2
		c5.9,6.5,13.3,10.7,22.3,12.6c9,1.9,25.6,2.9,49.9,2.9H364c19.1,0,32-2.2,38.7-6.6c6.7-4.4,12.7-14.6,18.1-30.6l13.7-41.2
		c-7.2,8.4-15.1,14.1-23.7,17c-8.6,3-21.5,4.4-38.7,4.4h-84.8c-22.1,0-37.6-1.1-46.4-3.3c-8.8-2.2-16.3-6.7-22.4-13.6
		c-13.4-15.5-15.3-37.8-5.7-67l40.7-122c8.8-26.3,23.1-46.8,43-61.4c19.9-14.6,43.4-21.9,70.7-21.9h117.7c14.1,0,23.9,1.4,29.3,4.2
		c5.4,2.8,9.7,8.6,13,17.6L539,228.4z M456.9,429.1l37.3-112c3.4-10.3,5.3-16.9,5.5-19.9c0.2-3-0.8-5.9-3.1-8.7
		c-3.4-3.6-10.7-5.4-22-5.4h-41.2c-7.6,0-12.9,0.3-15.8,1c-2.9,0.7-5.8,2.1-8.6,4.4c-3.6,2.7-6.4,5.9-8.4,9.6
		c-2,3.7-4.6,10.3-7.7,19.6l-37.1,111.4c-7.6,22.9-1.5,34.2,18.5,33.8h41c12.2,0,21.1-2.2,26.6-6.7
		C447.4,451.7,452.4,442.7,456.9,429.1z"/>
</g>
</svg>
