<?xml version="1.0" encoding="utf-8"?>
<!-- Generator: Adobe Illustrator 16.0.0, SVG Export Plug-In . SVG Version: 6.00 Build 0)  -->
<!DOCTYPE svg PUBLIC "-//W3C//DTD SVG 1.1//EN" "http://www.w3.org/Graphics/SVG/1.1/DTD/svg11.dtd">
<svg version="1.1" id="Layer_1" xmlns="http://www.w3.org/2000/svg" xmlns:xlink="http://www.w3.org/1999/xlink" x="0px" y="0px"
	 width="849.344px" height="849.313px" viewBox="0 0 849.344 849.313" enable-background="new 0 0 849.344 849.313"
	 xml:space="preserve">
<g>
	<path fill="#4B59A6" d="M849.172,424.769c0,234.592-190.058,424.766-424.5,424.766c-234.443,0-424.5-190.174-424.5-424.766
		C0.172,190.166,190.229,0,424.672,0C659.115,0,849.172,190.166,849.172,424.769z"/>
	<g>
		<path fill="#FFFFFF" d="M671.342,665.223c11.333-15.611,10.085-37.504-3.988-51.572l-117.676-117.68
			c23.756-36.545,35.721-79.777,33.934-124.053C578.95,256.563,483.396,166.439,370.59,170.997
			c-112.811,4.561-200.802,102.108-196.138,217.46c4.664,115.342,100.24,205.471,213.044,200.912
			c38.617-1.563,75.078-14.035,106.618-36.057l116.791,116.797c7.791,7.789,18.014,11.688,28.225,11.688
			c6.654,0,13.229-1.826,19.213-5.127c3.476-1.422,6.661-3.516,9.317-6.346C669.136,668.748,670.32,667.021,671.342,665.223z
			 M385.292,534.805c-83.38,3.373-154.015-63.25-157.46-148.505c-3.442-85.26,61.58-157.365,144.962-160.735
			c83.369-3.366,154,63.249,157.45,148.509C533.692,459.328,468.671,531.439,385.292,534.805z"/>
		<g>
			<path fill="#FFFFFF" d="M377.726,272.126c17.525,0,32.236,5.099,44.111,15.295c11.884,10.202,17.83,22.545,17.83,37.04
				c0,3.201-0.338,6.319-1.015,9.354c-2.025,10.616-7.164,20.226-15.422,28.822c-7.076,6.571-14.073,13.062-20.987,19.466
				c-7.076,7.418-10.616,15.167-10.616,23.258l-0.248,30.339h-29.588l-0.248-29.833c-0.169-11.46,3.288-21.907,10.366-31.35
				c2.188-2.862,9.102-9.861,20.73-20.985c7.922-7.751,12.644-14.827,14.159-21.236c0.505-2.022,0.76-3.958,0.76-5.814
				c0-7.243-2.783-13.438-8.341-18.581c-5.563-5.14-13.068-7.713-22.508-7.713c-11.123,0-19.553,3.331-25.275,9.987
				c-5.737,6.659-8.265,15.044-7.588,25.158h-29.074c-1.008-17.193,3.617-31.687,13.904-43.486
				C340.137,278.699,356.488,272.126,377.726,272.126z M394.41,493.594h-35.4v-34.887h35.4V493.594z"/>
		</g>
	</g>
</g>
</svg>
